<svg xmlns="http://www.w3.org/2000/svg" xmlns:xlink="http://www.w3.org/1999/xlink">
	<symbol id="contact-phone" viewBox="0 0 28.029 28.028">
		<path d="M23.677 28.028L23.121 28c-1.253-.066-7.869-.762-15.1-7.992C.805 12.78.1 6.16.03 4.906L0 4.35l.458-.319a17.061 17.061 0 015.628-2.556l.565-.142.4.422a21.041 21.041 0 014.043 6.065l.275.626-2.433 2.431a13.455 13.455 0 003.36 4.791 13.627 13.627 0 004.856 3.424l2.427-2.436.627.277a20.962 20.962 0 016.065 4.044l.421.4-.141.563A17.066 17.066 0 0124 27.571zM9.436 18.593c5.951 5.95 11.441 7.125 13.238 7.355a15.078 15.078 0 001.784-3.925 18.956 18.956 0 00-4.438-2.975l-2.36 2.368-.6-.215a15.468 15.468 0 01-6.18-4.12 15.321 15.321 0 01-4.055-6.113l-.214-.6 2.368-2.361a19.047 19.047 0 00-2.973-4.439 15.057 15.057 0 00-3.924 1.784c.232 1.8 1.415 7.294 7.355 13.241zm18.593-5.315h-2A11.29 11.29 0 0014.751 2V0a13.294 13.294 0 0113.278 13.278zm-3.611 0h-2c0-4.658-3.01-7.667-7.667-7.667v-2c5.782 0 9.667 3.889 9.667 9.667zm-3.611 0h-2a4.061 4.061 0 00-4.056-4.056v-2a6.063 6.063 0 016.056 6.056z" />
	</symbol>

	<symbol id="circle-arrow" viewBox="0 0 36 36">
		<circle cx="18" cy="18" r="16" />
		<circle cx="18" cy="18" r="16" stroke="currentColor"/>
		<path d="M15.497 23.501l4.691-4.691v-.619l-4.691-4.69" />
	</symbol>

	<symbol id="courses-name" viewBox="0 0 20 20">
        <defs><style>.a{fill:#428ce2;}</style></defs><path class="a" d="M186.9,105.908a4.8,4.8,0,0,1-1.437,1.02,12.732,12.732,0,0,1-2.931.991,19.612,19.612,0,0,1-2.994.437c-.706.048-1.412.073-2.119.109a29.121,29.121,0,0,1-3.561-.26,17.554,17.554,0,0,1-3.665-.863,7.211,7.211,0,0,1-1.917-.993,2.9,2.9,0,0,1-.626-.634,1.426,1.426,0,0,1-.253-1.192,15.322,15.322,0,0,1,.554-1.88,2.028,2.028,0,0,1,.718-.881,12.318,12.318,0,0,1,2.1-1.247c.756-.373,1.539-.681,2.323-.981a7.8,7.8,0,0,0,1,.956,4.881,4.881,0,0,0,2.939,1.157l.306,0a4.7,4.7,0,0,0,2.15-.441,6.386,6.386,0,0,0,1.523-1.036c.218-.2.422-.412.616-.629a23.714,23.714,0,0,1,3.917,1.854c.143.086.279.184.416.281a2.334,2.334,0,0,1,.916,1.258c.149.5.293,1,.429,1.5A1.5,1.5,0,0,1,186.9,105.908Zm-4.781-13.3a4.965,4.965,0,0,0-2.622-3.581,4.383,4.383,0,0,0-2.992-.47,5.112,5.112,0,0,0-4.011,4.884,7.108,7.108,0,0,0,.454,2.642,6.832,6.832,0,0,0,2.171,3.1,3.256,3.256,0,0,0,1.949.8,3.459,3.459,0,0,0,1.674-.262,4.835,4.835,0,0,0,1.133-.767,7.384,7.384,0,0,0,2.35-5.348A9.533,9.533,0,0,0,182.118,92.6Z" transform="translate(-167.356 -88.465)"/>	
    </symbol>

</svg>
