<svg xmlns="http://www.w3.org/2000/svg" width="28.029" height="28.028" viewBox="0 0 28.029 28.028"><defs><style>.a{fill:#09388a;}</style></defs><path class="a" d="M23.677,28.028,23.121,28c-1.253-.066-7.869-.762-15.1-7.992h0C.805,12.78.1,6.16.03,4.906L0,4.35l.458-.319A17.061,17.061,0,0,1,6.086,1.475l.565-.142.4.422A21.041,21.041,0,0,1,11.094,7.82l.275.626L8.936,10.877a13.455,13.455,0,0,0,3.36,4.791,13.627,13.627,0,0,0,4.856,3.424l2.427-2.436.627.277a20.962,20.962,0,0,1,6.065,4.044l.421.4-.141.563A17.066,17.066,0,0,1,24,27.571ZM9.436,18.593c5.951,5.95,11.441,7.125,13.238,7.355a15.078,15.078,0,0,0,1.784-3.925,18.956,18.956,0,0,0-4.438-2.975l-2.36,2.368-.6-.215a15.468,15.468,0,0,1-6.18-4.12,15.321,15.321,0,0,1-4.055-6.113l-.214-.6L8.979,8.007A19.047,19.047,0,0,0,6.006,3.568,15.057,15.057,0,0,0,2.082,5.352c.232,1.8,1.415,7.294,7.355,13.241Zm18.593-5.315h-2A11.29,11.29,0,0,0,14.751,2V0A13.294,13.294,0,0,1,28.029,13.278Zm-3.611,0h-2c0-4.658-3.01-7.667-7.667-7.667v-2C20.533,3.611,24.418,7.5,24.418,13.278Zm-3.611,0h-2a4.061,4.061,0,0,0-4.056-4.056v-2A6.063,6.063,0,0,1,20.807,13.278Z"/></svg>