<svg xmlns="http://www.w3.org/2000/svg" width="20" height="20" viewBox="0 0 20 20"><defs><style>.a{fill:#428ce2;}</style></defs><path class="a" d="M186.9,105.908a4.8,4.8,0,0,1-1.437,1.02,12.732,12.732,0,0,1-2.931.991,19.612,19.612,0,0,1-2.994.437c-.706.048-1.412.073-2.119.109a29.121,29.121,0,0,1-3.561-.26,17.554,17.554,0,0,1-3.665-.863,7.211,7.211,0,0,1-1.917-.993,2.9,2.9,0,0,1-.626-.634,1.426,1.426,0,0,1-.253-1.192,15.322,15.322,0,0,1,.554-1.88,2.028,2.028,0,0,1,.718-.881,12.318,12.318,0,0,1,2.1-1.247c.756-.373,1.539-.681,2.323-.981a7.8,7.8,0,0,0,1,.956,4.881,4.881,0,0,0,2.939,1.157l.306,0a4.7,4.7,0,0,0,2.15-.441,6.386,6.386,0,0,0,1.523-1.036c.218-.2.422-.412.616-.629a23.714,23.714,0,0,1,3.917,1.854c.143.086.279.184.416.281a2.334,2.334,0,0,1,.916,1.258c.149.5.293,1,.429,1.5A1.5,1.5,0,0,1,186.9,105.908Zm-4.781-13.3a4.965,4.965,0,0,0-2.622-3.581,4.383,4.383,0,0,0-2.992-.47,5.112,5.112,0,0,0-4.011,4.884,7.108,7.108,0,0,0,.454,2.642,6.832,6.832,0,0,0,2.171,3.1,3.256,3.256,0,0,0,1.949.8,3.459,3.459,0,0,0,1.674-.262,4.835,4.835,0,0,0,1.133-.767,7.384,7.384,0,0,0,2.35-5.348A9.533,9.533,0,0,0,182.118,92.6Z" transform="translate(-167.356 -88.465)"/></svg>